# xmcd
#
# Track frame offsets:
#	150
#	8657
#	20497
#	32350
#	46732
#	56865
#	66257
#	74532
#	86200
#	94760
#	107750
#	118370
#	130107
#	146027
#	157387
#	168940
#	179657
#	191410
#	199385
#	207270
#	215905
#	225482
#	236412
#	248105
#	260742
#	272005
#	281995
#	299137
#	308485
#	319085
#
# Disc length: 4419
#
# Revision: 1
# Processed by: cddbd v1.5.1PL0 Copyright (c) Steve Scherf et al.
# Submitted via: ExactAudioCopy v0.90b4
# Normalized: r0:DSETVAR1
#
DISCID=d911411e
DTITLE=Various Artist - Guys of the Big "D" Jamboree
DYEAR=2002
DGENRE=Country
TTITLE0=Douglas Bragg - Barberd Wire Love
TTITLE1=Douglas Bragg - Tiger Lily
TTITLE2=Jimmy Collie - My Heart and I
TTITLE3=Jimmy Fields - Your Picture on the Wall
TTITLE4=Riley Crabtree - Something Tells Me
TTITLE5=Riley Crabtere - She Loves Me Better
TTITLE6=Riley Crabtree - Go Cat Go
TTITLE7=Riley Crabtree - Someone Reminds Me of You
TTITLE8=Joe Price - Don't Knock It
TTITLE9=Sid King and The Five Strings - You're Always Breaking Hearts
TTITLE10=Clay Allen - I Can't Keep Smiling
TTITLE11=Joe Bill D'Angelo - Everybody Knows I Tried
TTITLE12=Gene O'Quin - The Hard Way (live)
TTITLE13=Gene O'Quin with Boots and His Buddies - Next Sunday Darling Is My Birthday
TTITLE14=Leroy Jenkins - Hard Luck Hard Time Blues
TTITLE15=Leroy Jenkins - Why Don't You Get on the Woo Wagon with Me?
TTITLE16=Buddy Walker - Red Roses
TTITLE17=Buddy Griffin - Just Wait and See
TTITLE18=Orville Couch - Wait's What Broke the Wagon Down
TTITLE19=Orville Couch and Eddie McDuff - Be Bop Crazy
TTITLE20=Country Johnny Mathis and Les Chambers - Everybody Else Does
TTITLE21=Lefty Frizzell - Stepping Out
TTITLE22=Lefty Frizzell - Always in Love
TTITLE23=The Texas Stompers - Pineapple Push
TTITLE24=Frankie Miller - Black Land Farmer (live)
TTITLE25=Frankie Miller - Impersonations of Johnny Cash and Lefty Frizzell (live)
TTITLE26=Tony Douglas - Seasons of My Heart (live)
TTITLE27=Billy Jack Hale - I Take My Hat Off to the Blues
TTITLE28=Mitchell Torok - A Few More Memories
TTITLE29=Mitchell Torok - Mr. D.J.
EXTD=
EXTT0=
EXTT1=
EXTT2=
EXTT3=
EXTT4=
EXTT5=
EXTT6=
EXTT7=
EXTT8=
EXTT9=
EXTT10=
EXTT11=
EXTT12=
EXTT13=
EXTT14=
EXTT15=
EXTT16=
EXTT17=
EXTT18=
EXTT19=
EXTT20=
EXTT21=
EXTT22=
EXTT23=
EXTT24=
EXTT25=
EXTT26=
EXTT27=
EXTT28=
EXTT29=
PLAYORDER=
